<mxfile host="www.draw.io" modified="2020-02-29T12:51:58.948Z" agent="Mozilla/5.0 (Windows NT 10.0; Win64; x64) AppleWebKit/537.36 (KHTML, like Gecko) Chrome/80.0.3987.122 Safari/537.36" etag="0Vw113k65-OpZ28zk1bj" version="12.7.9" type="github">
  <diagram id="5vJSCrqg3OihruMQw9vf" name="第 1 页">
    <mxGraphModel dx="637" dy="1605" grid="1" gridSize="10" guides="1" tooltips="1" connect="1" arrows="1" fold="1" page="1" pageScale="1" pageWidth="827" pageHeight="1169" math="0" shadow="0">
      <root>
        <mxCell id="0" />
        <mxCell id="1" parent="0" />
        <mxCell id="Zc-Og9lo4LXf_VJUzNac-1" value="订单" style="rounded=0;whiteSpace=wrap;html=1;" vertex="1" parent="1">
          <mxGeometry x="250" y="190" width="110" height="50" as="geometry" />
        </mxCell>
        <mxCell id="Zc-Og9lo4LXf_VJUzNac-2" value="订单ID" style="ellipse;whiteSpace=wrap;html=1;" vertex="1" parent="1">
          <mxGeometry x="320" y="20" width="80" height="60" as="geometry" />
        </mxCell>
        <mxCell id="Zc-Og9lo4LXf_VJUzNac-3" value="数量合计" style="ellipse;whiteSpace=wrap;html=1;" vertex="1" parent="1">
          <mxGeometry x="380" y="40" width="80" height="60" as="geometry" />
        </mxCell>
        <mxCell id="Zc-Og9lo4LXf_VJUzNac-4" value="金额合计" style="ellipse;whiteSpace=wrap;html=1;" vertex="1" parent="1">
          <mxGeometry x="430" y="80" width="80" height="60" as="geometry" />
        </mxCell>
        <mxCell id="Zc-Og9lo4LXf_VJUzNac-5" value="优惠金额" style="ellipse;whiteSpace=wrap;html=1;" vertex="1" parent="1">
          <mxGeometry x="480" y="150" width="80" height="60" as="geometry" />
        </mxCell>
        <mxCell id="Zc-Og9lo4LXf_VJUzNac-6" value="邮费" style="ellipse;whiteSpace=wrap;html=1;" vertex="1" parent="1">
          <mxGeometry x="510" y="220" width="80" height="60" as="geometry" />
        </mxCell>
        <mxCell id="Zc-Og9lo4LXf_VJUzNac-7" value="实付金额" style="ellipse;whiteSpace=wrap;html=1;" vertex="1" parent="1">
          <mxGeometry x="500" y="310" width="80" height="60" as="geometry" />
        </mxCell>
        <mxCell id="Zc-Og9lo4LXf_VJUzNac-8" value="支付类型" style="ellipse;whiteSpace=wrap;html=1;" vertex="1" parent="1">
          <mxGeometry x="450" y="390" width="80" height="60" as="geometry" />
        </mxCell>
        <mxCell id="Zc-Og9lo4LXf_VJUzNac-9" value="订单创建时间" style="ellipse;whiteSpace=wrap;html=1;" vertex="1" parent="1">
          <mxGeometry x="350" y="410" width="80" height="60" as="geometry" />
        </mxCell>
        <mxCell id="Zc-Og9lo4LXf_VJUzNac-10" value="订单更新时间" style="ellipse;whiteSpace=wrap;html=1;" vertex="1" parent="1">
          <mxGeometry x="250" y="410" width="80" height="60" as="geometry" />
        </mxCell>
        <mxCell id="Zc-Og9lo4LXf_VJUzNac-11" value="订单更新时间" style="ellipse;whiteSpace=wrap;html=1;" vertex="1" parent="1">
          <mxGeometry x="160" y="400" width="80" height="60" as="geometry" />
        </mxCell>
        <mxCell id="Zc-Og9lo4LXf_VJUzNac-12" value="付款时间" style="ellipse;whiteSpace=wrap;html=1;" vertex="1" parent="1">
          <mxGeometry x="100" y="360" width="80" height="60" as="geometry" />
        </mxCell>
        <mxCell id="Zc-Og9lo4LXf_VJUzNac-13" value="发货时间" style="ellipse;whiteSpace=wrap;html=1;" vertex="1" parent="1">
          <mxGeometry x="60" y="310" width="80" height="60" as="geometry" />
        </mxCell>
        <mxCell id="Zc-Og9lo4LXf_VJUzNac-14" value="发货时间" style="ellipse;whiteSpace=wrap;html=1;" vertex="1" parent="1">
          <mxGeometry x="40" y="250" width="80" height="60" as="geometry" />
        </mxCell>
        <mxCell id="Zc-Og9lo4LXf_VJUzNac-15" value="收货人" style="ellipse;whiteSpace=wrap;html=1;" vertex="1" parent="1">
          <mxGeometry x="30" y="190" width="80" height="60" as="geometry" />
        </mxCell>
        <mxCell id="Zc-Og9lo4LXf_VJUzNac-16" value="收货人手机" style="ellipse;whiteSpace=wrap;html=1;" vertex="1" parent="1">
          <mxGeometry x="30" y="130" width="80" height="60" as="geometry" />
        </mxCell>
        <mxCell id="Zc-Og9lo4LXf_VJUzNac-17" value="收货人地址" style="ellipse;whiteSpace=wrap;html=1;" vertex="1" parent="1">
          <mxGeometry x="50" y="80" width="80" height="60" as="geometry" />
        </mxCell>
        <mxCell id="Zc-Og9lo4LXf_VJUzNac-18" value="用户名称" style="ellipse;whiteSpace=wrap;html=1;" vertex="1" parent="1">
          <mxGeometry x="90" y="30" width="80" height="60" as="geometry" />
        </mxCell>
        <mxCell id="Zc-Og9lo4LXf_VJUzNac-19" value="用户名称" style="ellipse;whiteSpace=wrap;html=1;" vertex="1" parent="1">
          <mxGeometry x="150" y="-10" width="80" height="60" as="geometry" />
        </mxCell>
        <mxCell id="Zc-Og9lo4LXf_VJUzNac-20" value="物流单号" style="ellipse;whiteSpace=wrap;html=1;" vertex="1" parent="1">
          <mxGeometry x="240" y="-10" width="80" height="60" as="geometry" />
        </mxCell>
        <mxCell id="Zc-Og9lo4LXf_VJUzNac-21" value="" style="endArrow=none;html=1;entryX=0.5;entryY=0;entryDx=0;entryDy=0;exitX=0.5;exitY=1;exitDx=0;exitDy=0;" edge="1" parent="1" source="Zc-Og9lo4LXf_VJUzNac-1" target="Zc-Og9lo4LXf_VJUzNac-10">
          <mxGeometry width="50" height="50" relative="1" as="geometry">
            <mxPoint x="300" y="260" as="sourcePoint" />
            <mxPoint x="350" y="200" as="targetPoint" />
          </mxGeometry>
        </mxCell>
        <mxCell id="Zc-Og9lo4LXf_VJUzNac-23" value="" style="endArrow=none;html=1;exitX=0.5;exitY=1;exitDx=0;exitDy=0;" edge="1" parent="1" source="Zc-Og9lo4LXf_VJUzNac-1" target="Zc-Og9lo4LXf_VJUzNac-9">
          <mxGeometry width="50" height="50" relative="1" as="geometry">
            <mxPoint x="315" y="250" as="sourcePoint" />
            <mxPoint x="300" y="420" as="targetPoint" />
          </mxGeometry>
        </mxCell>
        <mxCell id="Zc-Og9lo4LXf_VJUzNac-24" value="" style="endArrow=none;html=1;exitX=0.5;exitY=1;exitDx=0;exitDy=0;entryX=0;entryY=0;entryDx=0;entryDy=0;" edge="1" parent="1" source="Zc-Og9lo4LXf_VJUzNac-1" target="Zc-Og9lo4LXf_VJUzNac-8">
          <mxGeometry width="50" height="50" relative="1" as="geometry">
            <mxPoint x="315" y="250" as="sourcePoint" />
            <mxPoint x="387.8521921675749" y="421.4169227472353" as="targetPoint" />
          </mxGeometry>
        </mxCell>
        <mxCell id="Zc-Og9lo4LXf_VJUzNac-25" value="" style="endArrow=none;html=1;exitX=1;exitY=0.5;exitDx=0;exitDy=0;entryX=0.058;entryY=0.26;entryDx=0;entryDy=0;entryPerimeter=0;" edge="1" parent="1" source="Zc-Og9lo4LXf_VJUzNac-1" target="Zc-Og9lo4LXf_VJUzNac-7">
          <mxGeometry width="50" height="50" relative="1" as="geometry">
            <mxPoint x="315" y="250" as="sourcePoint" />
            <mxPoint x="471.7157287525381" y="408.78679656440363" as="targetPoint" />
          </mxGeometry>
        </mxCell>
        <mxCell id="Zc-Og9lo4LXf_VJUzNac-26" value="" style="endArrow=none;html=1;exitX=1;exitY=0.5;exitDx=0;exitDy=0;entryX=0;entryY=0.5;entryDx=0;entryDy=0;" edge="1" parent="1" source="Zc-Og9lo4LXf_VJUzNac-1" target="Zc-Og9lo4LXf_VJUzNac-6">
          <mxGeometry width="50" height="50" relative="1" as="geometry">
            <mxPoint x="370" y="225" as="sourcePoint" />
            <mxPoint x="514.6400000000001" y="335.5999999999999" as="targetPoint" />
          </mxGeometry>
        </mxCell>
        <mxCell id="Zc-Og9lo4LXf_VJUzNac-27" value="" style="endArrow=none;html=1;exitX=1;exitY=0.5;exitDx=0;exitDy=0;entryX=0;entryY=0.5;entryDx=0;entryDy=0;" edge="1" parent="1" source="Zc-Og9lo4LXf_VJUzNac-1" target="Zc-Og9lo4LXf_VJUzNac-5">
          <mxGeometry width="50" height="50" relative="1" as="geometry">
            <mxPoint x="370" y="225" as="sourcePoint" />
            <mxPoint x="520" y="260" as="targetPoint" />
          </mxGeometry>
        </mxCell>
        <mxCell id="Zc-Og9lo4LXf_VJUzNac-28" value="" style="endArrow=none;html=1;exitX=1;exitY=0.5;exitDx=0;exitDy=0;" edge="1" parent="1" source="Zc-Og9lo4LXf_VJUzNac-1" target="Zc-Og9lo4LXf_VJUzNac-4">
          <mxGeometry width="50" height="50" relative="1" as="geometry">
            <mxPoint x="370" y="225" as="sourcePoint" />
            <mxPoint x="490" y="190" as="targetPoint" />
          </mxGeometry>
        </mxCell>
        <mxCell id="Zc-Og9lo4LXf_VJUzNac-29" value="" style="endArrow=none;html=1;exitX=0.5;exitY=0;exitDx=0;exitDy=0;" edge="1" parent="1" source="Zc-Og9lo4LXf_VJUzNac-1" target="Zc-Og9lo4LXf_VJUzNac-3">
          <mxGeometry width="50" height="50" relative="1" as="geometry">
            <mxPoint x="370" y="225" as="sourcePoint" />
            <mxPoint x="455.2871379227238" y="143.58955016467257" as="targetPoint" />
          </mxGeometry>
        </mxCell>
        <mxCell id="Zc-Og9lo4LXf_VJUzNac-30" value="" style="endArrow=none;html=1;exitX=0.5;exitY=0;exitDx=0;exitDy=0;entryX=0;entryY=1;entryDx=0;entryDy=0;" edge="1" parent="1" source="Zc-Og9lo4LXf_VJUzNac-1" target="Zc-Og9lo4LXf_VJUzNac-2">
          <mxGeometry width="50" height="50" relative="1" as="geometry">
            <mxPoint x="315" y="200" as="sourcePoint" />
            <mxPoint x="406.6545580738948" y="104.36046114028386" as="targetPoint" />
          </mxGeometry>
        </mxCell>
        <mxCell id="Zc-Og9lo4LXf_VJUzNac-31" value="" style="endArrow=none;html=1;exitX=0.5;exitY=0;exitDx=0;exitDy=0;entryX=0.5;entryY=1;entryDx=0;entryDy=0;" edge="1" parent="1" source="Zc-Og9lo4LXf_VJUzNac-1" target="Zc-Og9lo4LXf_VJUzNac-20">
          <mxGeometry width="50" height="50" relative="1" as="geometry">
            <mxPoint x="315" y="200" as="sourcePoint" />
            <mxPoint x="341.7157287525381" y="81.21320343559637" as="targetPoint" />
          </mxGeometry>
        </mxCell>
        <mxCell id="Zc-Og9lo4LXf_VJUzNac-32" value="" style="endArrow=none;html=1;exitX=0.5;exitY=0;exitDx=0;exitDy=0;" edge="1" parent="1" source="Zc-Og9lo4LXf_VJUzNac-1" target="Zc-Og9lo4LXf_VJUzNac-19">
          <mxGeometry width="50" height="50" relative="1" as="geometry">
            <mxPoint x="315" y="200" as="sourcePoint" />
            <mxPoint x="290" y="60" as="targetPoint" />
          </mxGeometry>
        </mxCell>
        <mxCell id="Zc-Og9lo4LXf_VJUzNac-33" value="" style="endArrow=none;html=1;exitX=0.5;exitY=0;exitDx=0;exitDy=0;entryX=0.983;entryY=0.713;entryDx=0;entryDy=0;entryPerimeter=0;" edge="1" parent="1" source="Zc-Og9lo4LXf_VJUzNac-1" target="Zc-Og9lo4LXf_VJUzNac-18">
          <mxGeometry width="50" height="50" relative="1" as="geometry">
            <mxPoint x="315" y="200" as="sourcePoint" />
            <mxPoint x="218.09806883219778" y="56.75366696933588" as="targetPoint" />
          </mxGeometry>
        </mxCell>
        <mxCell id="Zc-Og9lo4LXf_VJUzNac-34" value="" style="endArrow=none;html=1;exitX=0;exitY=0.5;exitDx=0;exitDy=0;entryX=1;entryY=0.5;entryDx=0;entryDy=0;" edge="1" parent="1" source="Zc-Og9lo4LXf_VJUzNac-1" target="Zc-Og9lo4LXf_VJUzNac-17">
          <mxGeometry width="50" height="50" relative="1" as="geometry">
            <mxPoint x="315" y="200" as="sourcePoint" />
            <mxPoint x="178.64" y="82.77999999999997" as="targetPoint" />
          </mxGeometry>
        </mxCell>
        <mxCell id="Zc-Og9lo4LXf_VJUzNac-35" value="" style="endArrow=none;html=1;exitX=0;exitY=0.5;exitDx=0;exitDy=0;entryX=1;entryY=0.5;entryDx=0;entryDy=0;" edge="1" parent="1" source="Zc-Og9lo4LXf_VJUzNac-1" target="Zc-Og9lo4LXf_VJUzNac-16">
          <mxGeometry width="50" height="50" relative="1" as="geometry">
            <mxPoint x="260" y="225" as="sourcePoint" />
            <mxPoint x="140" y="120" as="targetPoint" />
          </mxGeometry>
        </mxCell>
        <mxCell id="Zc-Og9lo4LXf_VJUzNac-36" value="" style="endArrow=none;html=1;entryX=1.003;entryY=0.38;entryDx=0;entryDy=0;entryPerimeter=0;exitX=0;exitY=0.5;exitDx=0;exitDy=0;" edge="1" parent="1" source="Zc-Og9lo4LXf_VJUzNac-1" target="Zc-Og9lo4LXf_VJUzNac-15">
          <mxGeometry width="50" height="50" relative="1" as="geometry">
            <mxPoint x="250" y="210" as="sourcePoint" />
            <mxPoint x="120" y="170" as="targetPoint" />
          </mxGeometry>
        </mxCell>
        <mxCell id="Zc-Og9lo4LXf_VJUzNac-37" value="" style="endArrow=none;html=1;entryX=1.028;entryY=0.353;entryDx=0;entryDy=0;entryPerimeter=0;exitX=0;exitY=0.5;exitDx=0;exitDy=0;" edge="1" parent="1" source="Zc-Og9lo4LXf_VJUzNac-1" target="Zc-Og9lo4LXf_VJUzNac-14">
          <mxGeometry width="50" height="50" relative="1" as="geometry">
            <mxPoint x="260" y="225" as="sourcePoint" />
            <mxPoint x="120.24000000000001" y="222.79999999999995" as="targetPoint" />
          </mxGeometry>
        </mxCell>
        <mxCell id="Zc-Og9lo4LXf_VJUzNac-38" value="" style="endArrow=none;html=1;exitX=0;exitY=0.5;exitDx=0;exitDy=0;" edge="1" parent="1" source="Zc-Og9lo4LXf_VJUzNac-1" target="Zc-Og9lo4LXf_VJUzNac-13">
          <mxGeometry width="50" height="50" relative="1" as="geometry">
            <mxPoint x="260" y="225" as="sourcePoint" />
            <mxPoint x="132.24" y="281.18000000000006" as="targetPoint" />
          </mxGeometry>
        </mxCell>
        <mxCell id="Zc-Og9lo4LXf_VJUzNac-39" value="" style="endArrow=none;html=1;exitX=0.5;exitY=1;exitDx=0;exitDy=0;entryX=1;entryY=0;entryDx=0;entryDy=0;" edge="1" parent="1" source="Zc-Og9lo4LXf_VJUzNac-1" target="Zc-Og9lo4LXf_VJUzNac-12">
          <mxGeometry width="50" height="50" relative="1" as="geometry">
            <mxPoint x="260" y="225" as="sourcePoint" />
            <mxPoint x="136.75858926489684" y="327.7011756125862" as="targetPoint" />
          </mxGeometry>
        </mxCell>
        <mxCell id="Zc-Og9lo4LXf_VJUzNac-40" value="" style="endArrow=none;html=1;exitX=0.5;exitY=1;exitDx=0;exitDy=0;entryX=0.778;entryY=0.04;entryDx=0;entryDy=0;entryPerimeter=0;" edge="1" parent="1" source="Zc-Og9lo4LXf_VJUzNac-1" target="Zc-Og9lo4LXf_VJUzNac-11">
          <mxGeometry width="50" height="50" relative="1" as="geometry">
            <mxPoint x="315" y="250" as="sourcePoint" />
            <mxPoint x="178.2842712474619" y="378.78679656440363" as="targetPoint" />
          </mxGeometry>
        </mxCell>
      </root>
    </mxGraphModel>
  </diagram>
</mxfile>
